<?xml version="1.0" encoding="UTF-8" standalone="no"?>
<svg
   xmlns:dc="http://purl.org/dc/elements/1.1/"
   xmlns:cc="http://creativecommons.org/ns#"
   xmlns:rdf="http://www.w3.org/1999/02/22-rdf-syntax-ns#"
   xmlns:svg="http://www.w3.org/2000/svg"
   xmlns="http://www.w3.org/2000/svg"
   viewBox="0 0 1440 1440"
   height="1440"
   width="1440"
   xml:space="preserve"
   id="svg2"
   version="1.1"><metadata
     id="metadata8"><rdf:RDF><cc:Work
         rdf:about=""><dc:format>image/svg+xml</dc:format><dc:type
           rdf:resource="http://purl.org/dc/dcmitype/StillImage" /></cc:Work></rdf:RDF></metadata><defs
     id="defs6"><clipPath
       id="clipPath18"
       clipPathUnits="userSpaceOnUse"><path
         id="path16"
         d="M 0,1080 H 1080 V 0 H 0 Z" /></clipPath></defs><g
     transform="matrix(1.3333333,0,0,-1.3333333,0,1440)"
     id="g10"><g
       id="g12"><g
         clip-path="url(#clipPath18)"
         id="g14"><g
           transform="translate(320.7593,542.0937)"
           id="g20"><path
             id="path22"
             style="fill:#3975ba;fill-opacity:1;fill-rule:nonzero;stroke:none"
             d="m 0,0 -63.357,100.825 95.337,-0.597 c 23.961,0 44.38,8.484 61.349,25.453 16.969,16.876 25.453,37.295 25.453,61.256 0,23.962 -8.484,44.567 -25.453,61.815 -16.969,17.156 -37.388,25.734 -61.349,25.734 h -95.337 v 108.559 l 96.176,0.06 c 53.611,0 99.296,-19.113 137.056,-57.433 37.854,-38.319 56.687,-84.471 56.687,-138.735 0,-37.947 -10.069,-72.91 -30.114,-104.703 -20.046,-31.701 -46.711,-55.476 -80.09,-71.046 l 93.516,-142.278 73.193,-110.951 H 153.093 L 0.328,-0.519 Z" /></g><g
           transform="translate(213.6812,542.5854)"
           id="g24"><path
             id="path26"
             style="fill:#e96127;fill-opacity:1;fill-rule:nonzero;stroke:none"
             d="M 0,0 0.328,-0.519 151.01,-242.532 h 77.464 L 157.626,-131.089 64.11,11.188 9.071,100.229 l -72.428,0.597 z" /></g><g
           transform="translate(934.6279,612.5771)"
           id="g28"><path
             id="path30"
             style="fill:#3975ba;fill-opacity:1;fill-rule:nonzero;stroke:none"
             d="m 0,0 -66.749,-101.102 -85.229,-129.691 -50.224,-81.207 -128.599,-0.543 57.769,91.956 0.282,0.448 L -133.491,0 -272.75,220.248 l -0.326,0.434 -57.725,91.969 128.599,-0.544 50.224,-81.206 85.229,-129.692 z" /></g></g></g><text
       id="text34"
       style="font-variant:normal;font-weight:normal;font-stretch:normal;font-size:130.4526062px;font-family:'Good Times Rg';-inkscape-font-specification:GoodTimesRg-Regular;writing-mode:lr-tb;fill:#e96127;fill-opacity:1;fill-rule:nonzero;stroke:none"
       transform="matrix(1,0,0,-1,145.3721,154.7715)"><tspan
         id="tspan32"
         y="0"
         x="0 93.925873 214.07272 343.09033 451.88782 580.90546 665.1778">Trabaja</tspan></text>
</g></svg>